# xmcd
#
# Track frame offsets:
#	150
#	12729
#	26663
#	43345
#	57091
#	67400
#	81305
#	95634
#	110435
#	125250
#	138254
#	151763
#	163663
#	175097
#	188297
#	200984
#	214262
#	227701
#	242025
#	252760
#	266978
#	278112
#	291576
#	305088
#	317756
#
# Disc length: 4416
#
# Revision: 2
# Processed by: cddbd v1.5.1PL0 Copyright (c) Steve Scherf et al.
# Submitted via: EasyCDDAExtractor 7.0.5.4
# Normalized: r1:DSETVAR1
#
DISCID=80113e19
DTITLE=Various Artist - COWBOY SONGS AND HILLBILLY BALLADS VOLUME 1
DYEAR=2002
DGENRE=COUNTRY
TTITLE0=BEVERLY HILL BILLIES - ALONE IN LONESOME VALLEY
TTITLE1=UNCLE DAVE MACON - BAKE DAT CHICKEN PIE
TTITLE2=DOC HOPKINS - BARBARA ALLEN
TTITLE3=LUKE THE DRIFTER - BE CAREFUL OF STONES THAT YOU THROW
TTITLE4=GOPHER HOLE DIGGERS - BEAR CAT BLUES
TTITLE5=CLIFF CARLISLE - BLACK JACK DAVID
TTITLE6=BEVERLY HILL BILLIES - BY A WINDOW AT THE END OF THE LANE
TTITLE7=CHARLIE MARSHALL and HIS MAVERICKS - THE OLD HITCHIN' RAIL
TTITLE8=THE TUNE WRANGLERS - CHOPPO
TTITLE9=THE CHUCK WAGON GANG - JESUS HOLD MY HAND
TTITLE10=FRED VAN EPS - daly's reel
TTITLE11=WOODY GUTHRIE - do re me
TTITLE12=GRANDPA JONES - fix me a pallet
TTITLE13=JACK SAVAGE - GOIN' HOME
TTITLE14=ROY ACUFF - GREAT SPECKLED BIRD
TTITLE15=KANAWHA SINGERS - GOLDEN SLIPPERS
TTITLE16=KARL and HARTY - I JUST CAME TO GET MY BABY OUT OF JAIL
TTITLE17=PATSY MONTANA - I WNAT TO BE A COWBOY'S SWEETHEART
TTITLE18=GENE AUTRY - I WISH I HAD NEVER MET SUNSHINE
TTITLE19=GENE AUTRY and JIMMY LONG - IF YOU LET ME BE YOUR LITTLE SWEETHEART
TTITLE20=JIMMY LOGSDON - HANK WILLIAMS SINGS THE BLUES NO MORE
TTITLE21=JIMMIE THOMPSON - KARO
TTITLE22=BUELL KAZEE - LADY GAY
TTITLE23=SMITH'S SACRED SINGERS - LAND WHERE WE'LL NEVER GROW OLD
TTITLE24=CARSON ROBISON - LITTLE CABIN IN THE CASCADE MOUNTAINS
EXTD=
EXTT0=
EXTT1=
EXTT2=
EXTT3=
EXTT4=
EXTT5=
EXTT6=
EXTT7=
EXTT8=
EXTT9=
EXTT10=
EXTT11=
EXTT12=
EXTT13=
EXTT14=
EXTT15=
EXTT16=
EXTT17=
EXTT18=
EXTT19=
EXTT20=
EXTT21=
EXTT22=
EXTT23=
EXTT24=
PLAYORDER=
